<mxfile host="app.diagrams.net" agent="Mozilla/5.0 (Macintosh; Intel Mac OS X 10_15_7) AppleWebKit/605.1.15 (KHTML, like Gecko) Version/15.1 Safari/605.1.15" version="26.2.13">
  <diagram name="Страница — 1" id="E5subSw0p0QwKP9lKBTp">
    <mxGraphModel dx="948" dy="652" grid="1" gridSize="10" guides="1" tooltips="1" connect="1" arrows="1" fold="1" page="1" pageScale="1" pageWidth="1169" pageHeight="827" math="0" shadow="0">
      <root>
        <mxCell id="0" />
        <mxCell id="1" parent="0" />
        <mxCell id="m_DwPPS8RTgaah9K2X0W-1" value="Каюта" style="rounded=0;whiteSpace=wrap;html=1;" parent="1" vertex="1">
          <mxGeometry x="139.9973786407768" y="250.00352941176473" width="106.01941747572816" height="52.94117647058823" as="geometry" />
        </mxCell>
        <mxCell id="m_DwPPS8RTgaah9K2X0W-2" value="Круиз" style="rounded=0;whiteSpace=wrap;html=1;" parent="1" vertex="1">
          <mxGeometry x="609.9973786407767" y="340.00352941176476" width="106.01941747572816" height="52.94117647058823" as="geometry" />
        </mxCell>
        <mxCell id="m_DwPPS8RTgaah9K2X0W-4" value="Клиент" style="rounded=0;whiteSpace=wrap;html=1;" parent="1" vertex="1">
          <mxGeometry x="489.9973786407767" y="250.00352941176476" width="106.01941747572816" height="52.94117647058823" as="geometry" />
        </mxCell>
        <mxCell id="m_DwPPS8RTgaah9K2X0W-5" value="Турфирма" style="rounded=0;whiteSpace=wrap;html=1;" parent="1" vertex="1">
          <mxGeometry x="319.9973786407767" y="450.00352941176493" width="106.01941747572816" height="52.94117647058823" as="geometry" />
        </mxCell>
        <mxCell id="m_DwPPS8RTgaah9K2X0W-6" value="Туроператор" style="rounded=0;whiteSpace=wrap;html=1;" parent="1" vertex="1">
          <mxGeometry x="319.9973786407767" y="340.00352941176476" width="106.01941747572816" height="52.94117647058823" as="geometry" />
        </mxCell>
        <mxCell id="m_DwPPS8RTgaah9K2X0W-7" value="Судно" style="rounded=0;whiteSpace=wrap;html=1;" parent="1" vertex="1">
          <mxGeometry x="139.99737864077667" y="450.0035294117647" width="106.01941747572816" height="52.94117647058823" as="geometry" />
        </mxCell>
        <mxCell id="m_DwPPS8RTgaah9K2X0W-8" value="Турагентство" style="rounded=0;whiteSpace=wrap;html=1;" parent="1" vertex="1">
          <mxGeometry x="489.9973786407767" y="450.00352941176476" width="106.01941747572816" height="52.94117647058823" as="geometry" />
        </mxCell>
        <mxCell id="m_DwPPS8RTgaah9K2X0W-28" value="" style="endArrow=none;html=1;rounded=0;entryX=0;entryY=0.5;entryDx=0;entryDy=0;exitX=1;exitY=0.5;exitDx=0;exitDy=0;" parent="1" source="m_DwPPS8RTgaah9K2X0W-1" target="m_DwPPS8RTgaah9K2X0W-4" edge="1">
          <mxGeometry width="50" height="50" relative="1" as="geometry">
            <mxPoint x="460" y="360" as="sourcePoint" />
            <mxPoint x="510" y="310" as="targetPoint" />
          </mxGeometry>
        </mxCell>
        <mxCell id="m_DwPPS8RTgaah9K2X0W-30" value="" style="endArrow=none;html=1;rounded=0;exitX=1;exitY=0.5;exitDx=0;exitDy=0;entryX=0;entryY=0.5;entryDx=0;entryDy=0;" parent="1" source="m_DwPPS8RTgaah9K2X0W-6" target="m_DwPPS8RTgaah9K2X0W-2" edge="1">
          <mxGeometry width="50" height="50" relative="1" as="geometry">
            <mxPoint x="460" y="360" as="sourcePoint" />
            <mxPoint x="510" y="310" as="targetPoint" />
          </mxGeometry>
        </mxCell>
        <mxCell id="m_DwPPS8RTgaah9K2X0W-31" value="" style="endArrow=none;html=1;rounded=0;entryX=0.5;entryY=1;entryDx=0;entryDy=0;exitX=0.5;exitY=0;exitDx=0;exitDy=0;" parent="1" source="m_DwPPS8RTgaah9K2X0W-7" target="m_DwPPS8RTgaah9K2X0W-1" edge="1">
          <mxGeometry width="50" height="50" relative="1" as="geometry">
            <mxPoint x="150" y="391.47" as="sourcePoint" />
            <mxPoint x="200" y="341.47" as="targetPoint" />
          </mxGeometry>
        </mxCell>
        <mxCell id="m_DwPPS8RTgaah9K2X0W-32" value="" style="endArrow=none;html=1;rounded=0;exitX=1;exitY=0.5;exitDx=0;exitDy=0;entryX=0;entryY=0.5;entryDx=0;entryDy=0;" parent="1" edge="1">
          <mxGeometry width="50" height="50" relative="1" as="geometry">
            <mxPoint x="246.01679611650502" y="473.41411764705884" as="sourcePoint" />
            <mxPoint x="319.9973786407768" y="473.4141176470591" as="targetPoint" />
          </mxGeometry>
        </mxCell>
        <mxCell id="m_DwPPS8RTgaah9K2X0W-33" value="" style="endArrow=none;html=1;rounded=0;exitX=0.5;exitY=0;exitDx=0;exitDy=0;entryX=0.5;entryY=1;entryDx=0;entryDy=0;" parent="1" source="m_DwPPS8RTgaah9K2X0W-5" target="m_DwPPS8RTgaah9K2X0W-6" edge="1">
          <mxGeometry width="50" height="50" relative="1" as="geometry">
            <mxPoint x="330" y="561" as="sourcePoint" />
            <mxPoint x="340" y="400" as="targetPoint" />
          </mxGeometry>
        </mxCell>
        <mxCell id="m_DwPPS8RTgaah9K2X0W-34" value="" style="endArrow=none;html=1;rounded=0;exitX=1;exitY=0.5;exitDx=0;exitDy=0;entryX=0;entryY=0.5;entryDx=0;entryDy=0;" parent="1" source="m_DwPPS8RTgaah9K2X0W-5" target="m_DwPPS8RTgaah9K2X0W-8" edge="1">
          <mxGeometry width="50" height="50" relative="1" as="geometry">
            <mxPoint x="460" y="360" as="sourcePoint" />
            <mxPoint x="510" y="310" as="targetPoint" />
          </mxGeometry>
        </mxCell>
        <mxCell id="m_DwPPS8RTgaah9K2X0W-35" value="" style="endArrow=none;html=1;rounded=0;entryX=0.5;entryY=1;entryDx=0;entryDy=0;exitX=0.5;exitY=0;exitDx=0;exitDy=0;" parent="1" source="m_DwPPS8RTgaah9K2X0W-8" target="m_DwPPS8RTgaah9K2X0W-4" edge="1">
          <mxGeometry width="50" height="50" relative="1" as="geometry">
            <mxPoint x="460" y="450" as="sourcePoint" />
            <mxPoint x="510" y="400" as="targetPoint" />
          </mxGeometry>
        </mxCell>
        <mxCell id="m_DwPPS8RTgaah9K2X0W-36" value="" style="endArrow=none;html=1;rounded=0;entryX=1;entryY=0.5;entryDx=0;entryDy=0;exitX=0.5;exitY=0;exitDx=0;exitDy=0;" parent="1" source="m_DwPPS8RTgaah9K2X0W-2" target="m_DwPPS8RTgaah9K2X0W-4" edge="1">
          <mxGeometry width="50" height="50" relative="1" as="geometry">
            <mxPoint x="460" y="360" as="sourcePoint" />
            <mxPoint x="510" y="310" as="targetPoint" />
            <Array as="points">
              <mxPoint x="663" y="276" />
            </Array>
          </mxGeometry>
        </mxCell>
        <mxCell id="m_DwPPS8RTgaah9K2X0W-39" value="" style="endArrow=none;html=1;rounded=0;exitX=0.5;exitY=1;exitDx=0;exitDy=0;entryX=1;entryY=0.5;entryDx=0;entryDy=0;" parent="1" source="m_DwPPS8RTgaah9K2X0W-2" target="m_DwPPS8RTgaah9K2X0W-8" edge="1">
          <mxGeometry width="50" height="50" relative="1" as="geometry">
            <mxPoint x="690" y="486" as="sourcePoint" />
            <mxPoint x="663" y="470" as="targetPoint" />
            <Array as="points">
              <mxPoint x="663" y="476" />
            </Array>
          </mxGeometry>
        </mxCell>
        <mxCell id="m_DwPPS8RTgaah9K2X0W-44" value="&lt;b&gt;&lt;font style=&quot;font-size: 13px;&quot;&gt;1&lt;/font&gt;&lt;/b&gt;" style="text;html=1;align=center;verticalAlign=middle;whiteSpace=wrap;rounded=0;" parent="1" vertex="1">
          <mxGeometry x="190" y="434" width="40" height="16" as="geometry" />
        </mxCell>
        <mxCell id="m_DwPPS8RTgaah9K2X0W-45" value="&lt;div style=&quot;text-align: center;&quot;&gt;&lt;span style=&quot;color: rgb(4, 12, 40); font-family: &amp;quot;Google Sans&amp;quot;, &amp;quot;Helvetica Neue&amp;quot;, sans-serif; font-size: 20px; text-align: start;&quot;&gt;∞&lt;/span&gt;&lt;/div&gt;" style="text;html=1;align=center;verticalAlign=middle;whiteSpace=wrap;rounded=0;" parent="1" vertex="1">
          <mxGeometry x="160" y="302.94" width="40" height="16" as="geometry" />
        </mxCell>
        <mxCell id="m_DwPPS8RTgaah9K2X0W-46" value="&lt;div style=&quot;text-align: center;&quot;&gt;&lt;span style=&quot;color: rgb(4, 12, 40); font-family: &amp;quot;Google Sans&amp;quot;, &amp;quot;Helvetica Neue&amp;quot;, sans-serif; font-size: 20px; text-align: start;&quot;&gt;∞&lt;/span&gt;&lt;/div&gt;" style="text;html=1;align=center;verticalAlign=middle;whiteSpace=wrap;rounded=0;" parent="1" vertex="1">
          <mxGeometry x="240" y="480" width="40" height="16" as="geometry" />
        </mxCell>
        <mxCell id="m_DwPPS8RTgaah9K2X0W-50" value="&lt;div style=&quot;text-align: center;&quot;&gt;&lt;span style=&quot;color: rgb(4, 12, 40); font-family: &amp;quot;Google Sans&amp;quot;, &amp;quot;Helvetica Neue&amp;quot;, sans-serif; font-size: 20px; text-align: start;&quot;&gt;∞&lt;/span&gt;&lt;/div&gt;" style="text;html=1;align=center;verticalAlign=middle;whiteSpace=wrap;rounded=0;" parent="1" vertex="1">
          <mxGeometry x="340" y="392.94" width="40" height="16" as="geometry" />
        </mxCell>
        <mxCell id="m_DwPPS8RTgaah9K2X0W-51" value="&lt;div style=&quot;text-align: center;&quot;&gt;&lt;span style=&quot;color: rgb(4, 12, 40); font-family: &amp;quot;Google Sans&amp;quot;, &amp;quot;Helvetica Neue&amp;quot;, sans-serif; font-size: 20px; text-align: start;&quot;&gt;∞&lt;/span&gt;&lt;/div&gt;" style="text;html=1;align=center;verticalAlign=middle;whiteSpace=wrap;rounded=0;" parent="1" vertex="1">
          <mxGeometry x="460" y="460" width="40" height="16" as="geometry" />
        </mxCell>
        <mxCell id="m_DwPPS8RTgaah9K2X0W-54" value="&lt;div style=&quot;text-align: center;&quot;&gt;&lt;span style=&quot;color: rgb(4, 12, 40); font-family: &amp;quot;Google Sans&amp;quot;, &amp;quot;Helvetica Neue&amp;quot;, sans-serif; font-size: 20px; text-align: start;&quot;&gt;∞&lt;/span&gt;&lt;/div&gt;" style="text;html=1;align=center;verticalAlign=middle;whiteSpace=wrap;rounded=0;" parent="1" vertex="1">
          <mxGeometry x="630" y="392.94" width="40" height="16" as="geometry" />
        </mxCell>
        <mxCell id="m_DwPPS8RTgaah9K2X0W-55" value="&lt;div style=&quot;text-align: center;&quot;&gt;&lt;span style=&quot;color: rgb(4, 12, 40); font-family: &amp;quot;Google Sans&amp;quot;, &amp;quot;Helvetica Neue&amp;quot;, sans-serif; font-size: 20px; text-align: start;&quot;&gt;∞&lt;/span&gt;&lt;/div&gt;" style="text;html=1;align=center;verticalAlign=middle;whiteSpace=wrap;rounded=0;" parent="1" vertex="1">
          <mxGeometry x="590" y="476" width="40" height="16" as="geometry" />
        </mxCell>
        <mxCell id="m_DwPPS8RTgaah9K2X0W-57" value="&lt;div style=&quot;text-align: center;&quot;&gt;&lt;span style=&quot;color: rgb(4, 12, 40); font-family: &amp;quot;Google Sans&amp;quot;, &amp;quot;Helvetica Neue&amp;quot;, sans-serif; font-size: 20px; text-align: start;&quot;&gt;∞&lt;/span&gt;&lt;/div&gt;" style="text;html=1;align=center;verticalAlign=middle;whiteSpace=wrap;rounded=0;" parent="1" vertex="1">
          <mxGeometry x="596.02" y="260" width="40" height="16" as="geometry" />
        </mxCell>
        <mxCell id="m_DwPPS8RTgaah9K2X0W-62" value="&lt;div style=&quot;text-align: center;&quot;&gt;&lt;span style=&quot;color: rgb(4, 12, 40); font-family: &amp;quot;Google Sans&amp;quot;, &amp;quot;Helvetica Neue&amp;quot;, sans-serif; font-size: 20px; text-align: start;&quot;&gt;∞&lt;/span&gt;&lt;/div&gt;" style="text;html=1;align=center;verticalAlign=middle;whiteSpace=wrap;rounded=0;" parent="1" vertex="1">
          <mxGeometry x="580" y="350" width="40" height="16" as="geometry" />
        </mxCell>
        <mxCell id="m_DwPPS8RTgaah9K2X0W-64" value="&lt;b&gt;&lt;font style=&quot;font-size: 13px;&quot;&gt;1&lt;/font&gt;&lt;/b&gt;" style="text;html=1;align=center;verticalAlign=middle;whiteSpace=wrap;rounded=0;" parent="1" vertex="1">
          <mxGeometry x="420" y="366" width="40" height="16" as="geometry" />
        </mxCell>
        <mxCell id="m_DwPPS8RTgaah9K2X0W-72" value="&lt;div style=&quot;text-align: center;&quot;&gt;&lt;span style=&quot;color: rgb(4, 12, 40); font-family: &amp;quot;Google Sans&amp;quot;, &amp;quot;Helvetica Neue&amp;quot;, sans-serif; font-size: 20px; text-align: start;&quot;&gt;∞&lt;/span&gt;&lt;/div&gt;" style="text;html=1;align=center;verticalAlign=middle;whiteSpace=wrap;rounded=0;" parent="1" vertex="1">
          <mxGeometry x="540" y="434" width="40" height="16" as="geometry" />
        </mxCell>
        <mxCell id="m_DwPPS8RTgaah9K2X0W-73" value="&lt;div style=&quot;text-align: center;&quot;&gt;&lt;span style=&quot;color: rgb(4, 12, 40); font-family: &amp;quot;Google Sans&amp;quot;, &amp;quot;Helvetica Neue&amp;quot;, sans-serif; font-size: 20px; text-align: start;&quot;&gt;∞&lt;/span&gt;&lt;/div&gt;" style="text;html=1;align=center;verticalAlign=middle;whiteSpace=wrap;rounded=0;" parent="1" vertex="1">
          <mxGeometry x="510" y="302.94" width="40" height="16" as="geometry" />
        </mxCell>
        <mxCell id="m_DwPPS8RTgaah9K2X0W-74" value="&lt;div style=&quot;text-align: center;&quot;&gt;&lt;span style=&quot;color: rgb(4, 12, 40); font-family: &amp;quot;Google Sans&amp;quot;, &amp;quot;Helvetica Neue&amp;quot;, sans-serif; font-size: 20px; text-align: start;&quot;&gt;∞&lt;/span&gt;&lt;/div&gt;" style="text;html=1;align=center;verticalAlign=middle;whiteSpace=wrap;rounded=0;" parent="1" vertex="1">
          <mxGeometry x="460" y="260" width="40" height="16" as="geometry" />
        </mxCell>
        <mxCell id="0imAs8hVlUWNmFafiC3m-3" value="&lt;b&gt;&lt;font style=&quot;font-size: 13px;&quot;&gt;1&lt;/font&gt;&lt;/b&gt;" style="text;html=1;align=center;verticalAlign=middle;whiteSpace=wrap;rounded=0;" parent="1" vertex="1">
          <mxGeometry x="420" y="476" width="30" height="16" as="geometry" />
        </mxCell>
        <mxCell id="0imAs8hVlUWNmFafiC3m-4" value="&lt;b&gt;&lt;font style=&quot;font-size: 13px;&quot;&gt;1&lt;/font&gt;&lt;/b&gt;" style="text;html=1;align=center;verticalAlign=middle;whiteSpace=wrap;rounded=0;" parent="1" vertex="1">
          <mxGeometry x="370" y="434" width="30" height="16" as="geometry" />
        </mxCell>
        <mxCell id="KD8SGPdgerGIQWxkhjE6-2" value="&lt;b&gt;&lt;font style=&quot;font-size: 13px;&quot;&gt;1&lt;/font&gt;&lt;/b&gt;" style="text;html=1;align=center;verticalAlign=middle;whiteSpace=wrap;rounded=0;" vertex="1" parent="1">
          <mxGeometry x="300" y="460" width="30" height="16" as="geometry" />
        </mxCell>
        <mxCell id="KD8SGPdgerGIQWxkhjE6-3" value="" style="endArrow=none;html=1;rounded=0;entryX=0.5;entryY=1;entryDx=0;entryDy=0;exitX=1;exitY=0.5;exitDx=0;exitDy=0;" edge="1" parent="1" source="m_DwPPS8RTgaah9K2X0W-2" target="m_DwPPS8RTgaah9K2X0W-7">
          <mxGeometry width="50" height="50" relative="1" as="geometry">
            <mxPoint x="750" y="530" as="sourcePoint" />
            <mxPoint x="230" y="540" as="targetPoint" />
            <Array as="points">
              <mxPoint x="740" y="366" />
              <mxPoint x="740" y="530" />
              <mxPoint x="193" y="530" />
            </Array>
          </mxGeometry>
        </mxCell>
        <mxCell id="KD8SGPdgerGIQWxkhjE6-4" value="&lt;b&gt;&lt;font style=&quot;font-size: 13px;&quot;&gt;1&lt;/font&gt;&lt;/b&gt;" style="text;html=1;align=center;verticalAlign=middle;whiteSpace=wrap;rounded=0;" vertex="1" parent="1">
          <mxGeometry x="160" y="502.94" width="40" height="16" as="geometry" />
        </mxCell>
        <mxCell id="KD8SGPdgerGIQWxkhjE6-5" value="&lt;div style=&quot;text-align: center;&quot;&gt;&lt;span style=&quot;color: rgb(4, 12, 40); font-family: &amp;quot;Google Sans&amp;quot;, &amp;quot;Helvetica Neue&amp;quot;, sans-serif; font-size: 20px; text-align: start;&quot;&gt;∞&lt;/span&gt;&lt;/div&gt;" style="text;html=1;align=center;verticalAlign=middle;whiteSpace=wrap;rounded=0;" vertex="1" parent="1">
          <mxGeometry x="710" y="350" width="30" height="16" as="geometry" />
        </mxCell>
        <mxCell id="KD8SGPdgerGIQWxkhjE6-8" value="&lt;div style=&quot;text-align: center;&quot;&gt;&lt;span style=&quot;color: rgb(4, 12, 40); font-family: &amp;quot;Google Sans&amp;quot;, &amp;quot;Helvetica Neue&amp;quot;, sans-serif; font-size: 20px; text-align: start;&quot;&gt;∞&lt;/span&gt;&lt;/div&gt;" style="text;html=1;align=center;verticalAlign=middle;whiteSpace=wrap;rounded=0;" vertex="1" parent="1">
          <mxGeometry x="635" y="324" width="30" height="16" as="geometry" />
        </mxCell>
        <mxCell id="KD8SGPdgerGIQWxkhjE6-12" value="&lt;div style=&quot;text-align: center;&quot;&gt;&lt;span style=&quot;color: rgb(4, 12, 40); font-family: &amp;quot;Google Sans&amp;quot;, &amp;quot;Helvetica Neue&amp;quot;, sans-serif; font-size: 20px; text-align: start;&quot;&gt;∞&lt;/span&gt;&lt;/div&gt;" style="text;html=1;align=center;verticalAlign=middle;whiteSpace=wrap;rounded=0;" vertex="1" parent="1">
          <mxGeometry x="240" y="260" width="40" height="16" as="geometry" />
        </mxCell>
      </root>
    </mxGraphModel>
  </diagram>
</mxfile>
